<svg width="350" height="402" viewBox="0 0 350 402" fill="none" xmlns="http://www.w3.org/2000/svg">
<rect width="350" height="402" fill="#F5F5F5"/>
<rect width="350" height="402" fill="white"/>
<path d="M212.8 102C206.464 100.944 192.904 100.664 172.684 102.384C153.158 104.045 141.36 110.52 136.172 113.312C121.989 120.945 109.896 137.96 103.12 149.9C98.7422 157.614 94.496 169.76 91.388 179.576C88.28 189.392 86.96 196.784 86.28 207.06C85.6 217.336 85.6 230.272 86.656 240.896C88.5168 259.616 93.584 269.976 100.076 274.896C104.482 278.235 113.168 280.08 121.476 281.176C129.784 282.272 137.968 281.744 154.196 277.116C170.424 272.488 194.448 263.776 210.256 257.572C226.064 251.368 232.928 247.936 240 244.4" stroke="black" stroke-width="2" stroke-linecap="round"/>
</svg>
